<svg width="24" height="24" viewBox="0 0 24 24" fill="none" xmlns="http://www.w3.org/2000/svg">
<path fill-rule="evenodd" clip-rule="evenodd" d="M12 0C6.47715 0 2 4.37238 2 9.76598C2 13.1324 4.75441 17.5114 10.2068 23.0462L10.5652 23.4077C11.2973 24.1418 12.4723 24.1951 13.2668 23.5587L13.4142 23.4282L14.1593 22.6722C19.3701 17.3129 22 13.0546 22 9.76598C22 4.37238 17.5228 0 12 0ZM12 1.9532C16.4183 1.9532 20 5.4511 20 9.76598L19.9962 9.94866C19.8861 12.6565 17.352 16.617 12.3452 21.6988L11.999 22.0457L11.6459 21.6898C6.53053 16.4971 4 12.474 4 9.76598C4 5.4511 7.58172 1.9532 12 1.9532ZM12 5.85959C9.79086 5.85959 8 7.60854 8 9.76598C8 11.9234 9.79086 13.6724 12 13.6724C14.2091 13.6724 16 11.9234 16 9.76598C16 7.60854 14.2091 5.85959 12 5.85959ZM12 7.81279C13.1046 7.81279 14 8.68726 14 9.76598C14 10.8447 13.1046 11.7192 12 11.7192C10.8954 11.7192 10 10.8447 10 9.76598C10 8.68726 10.8954 7.81279 12 7.81279Z" fill="url(#paint0_linear_905_4534)"/>
<defs>
<linearGradient id="paint0_linear_905_4534" x1="22" y1="24" x2="22" y2="0" gradientUnits="userSpaceOnUse">
<stop stop-color="#3D8BE8"/>
<stop offset="1" stop-color="#89BEEC"/>
</linearGradient>
</defs>
</svg>
